<svg width="80" height="80" viewBox="0 0 80 80" fill="none" xmlns="http://www.w3.org/2000/svg">
<circle cx="40" cy="40" r="40" fill="white"/>
<path fill-rule="evenodd" clip-rule="evenodd" d="M43.935 21.4648C41.5862 23.8023 37.7781 23.8023 35.4293 21.4648L33.3029 19.3486L34.7205 17.9378L36.8469 20.054C38.4127 21.6124 40.9515 21.6124 42.5173 20.054L44.6438 17.9378L46.0614 19.3486L43.935 21.4648ZM21.5057 45.3025C23.8545 42.965 23.8545 39.1752 21.5057 36.8377L19.3793 34.7215L17.9617 36.1323L20.0881 38.2485C21.6539 39.8069 21.6539 42.3334 20.0881 43.8917L17.9617 46.0079L19.3793 47.4188L21.5057 45.3025ZM59.2012 36.8377C56.8524 39.1752 56.8524 42.965 59.2012 45.3025L61.3276 47.4188L62.7452 46.0079L60.6188 43.8917C59.0529 42.3334 59.0529 39.8069 60.6188 38.2485L62.7452 36.1323L61.3276 34.7215L59.2012 36.8377ZM43.935 57.8216C41.5862 55.4841 37.7781 55.4841 35.4293 57.8216L33.3029 59.9378L34.7205 61.3486L36.8469 59.2324C38.4127 57.6741 40.9515 57.6741 42.5173 59.2324L44.6438 61.3486L46.0614 59.9378L43.935 57.8216ZM28.9153 24.342C28.9153 27.6557 26.229 30.342 22.9153 30.342H19.9153V28.342H22.9153C25.1244 28.342 26.9153 26.5512 26.9153 24.342V21.342H28.9153V24.342ZM55.5604 50.8784C52.2467 50.8784 49.5604 53.5647 49.5604 56.8784V59.8784H51.5604V56.8784C51.5604 54.6693 53.3513 52.8784 55.5604 52.8784H58.5604V50.8784H55.5604ZM56.676 28.287C53.3623 28.287 50.676 25.6007 50.676 22.287V19.287L52.676 19.287V22.287C52.676 24.4961 54.4669 26.287 56.676 26.287L59.676 26.287V28.287L56.676 28.287ZM29.0815 55.7682C29.0815 52.4545 26.3952 49.7682 23.0815 49.7682H20.0815V51.7682H23.0815C25.2907 51.7682 27.0815 53.5591 27.0815 55.7682V58.7682H29.0815V55.7682ZM39.8535 50C45.6525 50 50.3535 45.299 50.3535 39.5C50.3535 33.701 45.6525 29 39.8535 29C34.0545 29 29.3535 33.701 29.3535 39.5C29.3535 45.299 34.0545 50 39.8535 50ZM39.8535 52C46.7571 52 52.3535 46.4036 52.3535 39.5C52.3535 32.5964 46.7571 27 39.8535 27C32.9499 27 27.3535 32.5964 27.3535 39.5C27.3535 46.4036 32.9499 52 39.8535 52Z" fill="#EF7C00"/>
</svg>
